C:\Users\r0593348\3dpredictsim\Results\Batchsim_tmt_linear\Pog_s1_tmt_bCst_d00_k1000_ig24_act_GRF.mot
nRows=30
nColumns=19

name C:\Users\r0593348\3dpredictsim\Results\Batchsim_tmt_linear\Pog_s1_tmt_bCst_d00_k1000_ig24_act_GRF.mot
datacolumns 19
datarows 30
range 0.6264471271 0.9897864609
endheader
time 	ground_force_vx	ground_force_vy	ground_force_vz	ground_force_px	ground_force_py	ground_force_pz	1_ground_force_vx	1_ground_force_vy	1_ground_force_vz	1_ground_force_px	1_ground_force_py	1_ground_force_pz	ground_torque_x	ground_torque_y	ground_torque_z	1_ground_torque_x	1_ground_torque_y	1_ground_torque_z
        0.6264471271	      110.1132446045	      438.5161466898	        1.6542042068	        0.4214072536	        0.0000000000	        0.0357219285	      -40.7076126859	       31.7761224012	       -9.5654166650	        0.9838787225	        0.0000000000	       -0.0507948051	        0.0000000000	        0.0000000000	        0.0000000000	        0.0000000000	        0.0000000000	        0.0000000000	
        0.6389760697	       80.3122281826	      344.2076515938	        5.9599835236	        0.4284995526	        0.0000000000	        0.0332355171	     -115.3588245812	      117.4767162856	      -39.3680480776	        0.9921116625	        0.0000000000	       -0.0489387036	        0.0000000000	        0.0000000000	        0.0000000000	        0.0000000000	        0.0000000000	        0.0000000000	
        0.6515050122	       45.9112333082	      235.5762248968	       13.2556070446	        0.4410349420	        0.0000000000	        0.0283858565	      -59.5500532338	      305.4349457085	      -14.4782340472	        0.9976329704	        0.0000000000	       -0.0471486543	        0.0000000000	        0.0000000000	        0.0000000000	        0.0000000000	        0.0000000000	        0.0000000000	
        0.6640339548	       29.3596243197	      179.5827790568	       12.8261649808	        0.4495151824	        0.0000000000	        0.0243823832	      -60.6673759445	      513.3585779622	        5.4088967185	        1.0006221744	        0.0000000000	       -0.0469872596	        0.0000000000	        0.0000000000	        0.0000000000	        0.0000000000	        0.0000000000	        0.0000000000	
        0.6765628973	       27.3224965615	      140.7339451030	       13.5250572829	        0.4499210009	        0.0000000000	        0.0245458417	     -106.7306500283	      720.0972645708	       14.1494805391	        1.0088398687	        0.0000000000	       -0.0488707347	        0.0000000000	        0.0000000000	        0.0000000000	        0.0000000000	        0.0000000000	        0.0000000000	
        0.6890918398	       18.0568366269	       91.5488486954	       14.9018703353	        0.4502321918	        0.0000000000	        0.0248938428	     -141.3048769138	      859.8218839167	       19.4561078917	        1.0172445000	        0.0000000000	       -0.0508967367	        0.0000000000	        0.0000000000	        0.0000000000	        0.0000000000	        0.0000000000	        0.0000000000	
        0.7016207824	        1.5916900828	       36.1532202812	        8.4013439691	        0.4495982675	        0.0000000000	        0.0249579682	     -148.1988020693	      888.6870788747	       20.1154417273	        1.0227191092	        0.0000000000	       -0.0520577333	        0.0000000000	        0.0000000000	        0.0000000000	        0.0000000000	        0.0000000000	        0.0000000000	
        0.7141497249	        0.1975937838	       -0.1966027664	       -0.0041818236	        0.0000000000	        0.0000000000	        0.0000000000	     -136.7572811920	      864.7912751675	       19.0270812811	        1.0266518777	        0.0000000000	       -0.0527283045	        0.0000000000	        0.0000000000	        0.0000000000	        0.0000000000	        0.0000000000	        0.0000000000	
        0.7266786675	        0.0017562633	       -0.0013904844	        0.0001021005	        0.0000000000	        0.0000000000	        0.0000000000	     -119.9718841855	      820.8817512694	       18.0111230563	        1.0302678626	        0.0000000000	       -0.0530819691	        0.0000000000	        0.0000000000	        0.0000000000	        0.0000000000	        0.0000000000	        0.0000000000	
        0.7392076100	        0.0041485027	       -0.0028002859	        0.0002945501	        0.0000000000	        0.0000000000	        0.0000000000	     -104.2321502758	      776.0580018134	       17.5085509542	        1.0341383339	        0.0000000000	       -0.0531635680	        0.0000000000	        0.0000000000	        0.0000000000	        0.0000000000	        0.0000000000	        0.0000000000	
        0.7517365526	        0.0394206653	       -0.0237448566	        0.0029300613	        0.0000000000	        0.0000000000	        0.0000000000	      -91.5407030037	      737.0106458837	       17.1966191691	        1.0384470839	        0.0000000000	       -0.0530913402	        0.0000000000	        0.0000000000	        0.0000000000	        0.0000000000	        0.0000000000	        0.0000000000	
        0.7642654951	       -0.2529418869	        0.1397940282	       -0.0195621647	        0.0000000000	        0.0000000000	        0.0000000000	      -81.5461287342	      708.0011284269	       17.6946636201	        1.0436202117	        0.0000000000	       -0.0527808927	        0.0000000000	        0.0000000000	        0.0000000000	        0.0000000000	        0.0000000000	        0.0000000000	
        0.7767944376	       -0.1709469402	        0.0890373035	       -0.0126123560	        0.0000000000	        0.0000000000	        0.0000000000	      -71.8060207926	      682.2095930780	       18.0615042555	        1.0488857854	        0.0000000000	       -0.0524290131	        0.0000000000	        0.0000000000	        0.0000000000	        0.0000000000	        0.0000000000	        0.0000000000	
        0.7893233802	       -0.1022799494	        0.0507554463	       -0.0074027819	        0.0000000000	        0.0000000000	        0.0000000000	      -62.3649293521	      657.5117312535	       18.8527234388	        1.0538075440	        0.0000000000	       -0.0521615830	        0.0000000000	        0.0000000000	        0.0000000000	        0.0000000000	        0.0000000000	        0.0000000000	
        0.8018523227	       -0.0731591759	        0.0348702440	       -0.0052285402	        0.0000000000	        0.0000000000	        0.0000000000	      -53.5587073294	      636.4102597603	       19.2517949828	        1.0585903825	        0.0000000000	       -0.0519816289	        0.0000000000	        0.0000000000	        0.0000000000	        0.0000000000	        0.0000000000	        0.0000000000	
        0.8143812653	       -0.0652704192	        0.0300795380	       -0.0046216727	        0.0000000000	        0.0000000000	        0.0000000000	      -45.9019232095	      619.4387619571	       19.6867253894	        1.0634051402	        0.0000000000	       -0.0518397663	        0.0000000000	        0.0000000000	        0.0000000000	        0.0000000000	        0.0000000000	        0.0000000000	
        0.8269102078	       -0.0710024618	        0.0318111822	       -0.0049471250	        0.0000000000	        0.0000000000	        0.0000000000	      -39.1263913788	      605.5483935344	       19.8201037210	        1.0682232253	        0.0000000000	       -0.0517152386	        0.0000000000	        0.0000000000	        0.0000000000	        0.0000000000	        0.0000000000	        0.0000000000	
        0.8394391503	       -0.0906305624	        0.0396315854	       -0.0061669275	        0.0000000000	        0.0000000000	        0.0000000000	      -33.2717431970	      595.7799428712	       19.7172618620	        1.0733856647	        0.0000000000	       -0.0515563003	        0.0000000000	        0.0000000000	        0.0000000000	        0.0000000000	        0.0000000000	        0.0000000000	
        0.8519680929	       -0.1313846914	        0.0562043713	       -0.0086935554	        0.0000000000	        0.0000000000	        0.0000000000	      -28.4212828442	      590.2613574211	       19.4137096964	        1.0791325234	        0.0000000000	       -0.0513086143	        0.0000000000	        0.0000000000	        0.0000000000	        0.0000000000	        0.0000000000	        0.0000000000	
        0.8644970354	       -0.2089369590	        0.0875524452	       -0.0133186833	        0.0000000000	        0.0000000000	        0.0000000000	      -24.8851128960	      587.7127893647	       19.0292273559	        1.0853533999	        0.0000000000	       -0.0509562780	        0.0000000000	        0.0000000000	        0.0000000000	        0.0000000000	        0.0000000000	        0.0000000000	
        0.8770259780	       -0.3470580958	        0.1427220796	       -0.0211944578	        0.0000000000	        0.0000000000	        0.0000000000	      -21.8834691880	      587.1238881156	       18.8307006900	        1.0918832471	        0.0000000000	       -0.0505085467	        0.0000000000	        0.0000000000	        0.0000000000	        0.0000000000	        0.0000000000	        0.0000000000	
        0.8895549205	       -0.5688461069	        0.2300921741	       -0.0332045758	        0.0000000000	        0.0000000000	        0.0000000000	      -19.3187838858	      587.5142670861	       18.6128270902	        1.0985509001	        0.0000000000	       -0.0499944670	        0.0000000000	        0.0000000000	        0.0000000000	        0.0000000000	        0.0000000000	        0.0000000000	
        0.9020838631	       -0.8770439415	        0.3498122664	       -0.0489613178	        0.0000000000	        0.0000000000	        0.0000000000	      -16.7824010626	      587.2528038606	       18.8525475983	        1.1051265813	        0.0000000000	       -0.0494518088	        0.0000000000	        0.0000000000	        0.0000000000	        0.0000000000	        0.0000000000	        0.0000000000	
        0.9146128056	       -1.2360451358	        0.4873050428	       -0.0662664919	        0.0000000000	        0.0000000000	        0.0000000000	      -14.0716236345	      585.2637522002	       19.1750311824	        1.1115709025	        0.0000000000	       -0.0488993866	        0.0000000000	        0.0000000000	        0.0000000000	        0.0000000000	        0.0000000000	        0.0000000000	
        0.9271417481	       -1.5712202820	        0.6137397213	       -0.0810058019	        0.0000000000	        0.0000000000	        0.0000000000	      -11.2324958929	      581.6816808821	       19.2878023962	        1.1178943631	        0.0000000000	       -0.0483409569	        0.0000000000	        0.0000000000	        0.0000000000	        0.0000000000	        0.0000000000	        0.0000000000	
        0.9396706907	       -1.8095168033	        0.7017329532	       -0.0892856468	        0.0000000000	        0.0000000000	        0.0000000000	       -8.2196810133	      576.8574783121	       19.0968709058	        1.1240863476	        0.0000000000	       -0.0477778600	        0.0000000000	        0.0000000000	        0.0000000000	        0.0000000000	        0.0000000000	        0.0000000000	
        0.9521996332	       -1.9294790342	        0.7437231432	       -0.0893660076	        0.0000000000	        0.0000000000	        0.0000000000	       -4.9920278795	      570.8120036167	       18.2222389750	        1.1301763033	        0.0000000000	       -0.0472069084	        0.0000000000	        0.0000000000	        0.0000000000	        0.0000000000	        0.0000000000	        0.0000000000	
        0.9647285758	       -1.9607914601	        0.7515787565	       -0.0823084879	        0.0000000000	        0.0000000000	        0.0000000000	       -1.8737699487	      565.3696870213	       16.8563885171	        1.1363329397	        0.0000000000	       -0.0465922715	        0.0000000000	        0.0000000000	        0.0000000000	        0.0000000000	        0.0000000000	        0.0000000000	
        0.9772575183	       -1.9029171314	        0.7259519917	       -0.0685087236	        0.0000000000	        0.0000000000	        0.0000000000	        1.1157777583	      562.0794959728	       15.3804480629	        1.1424871489	        0.0000000000	       -0.0459337002	        0.0000000000	        0.0000000000	        0.0000000000	        0.0000000000	        0.0000000000	        0.0000000000	
        0.9897864609	       -1.7310520528	        0.6578293981	       -0.0495333655	        0.0000000000	        0.0000000000	        0.0000000000	        4.0593750573	      561.6924824361	       14.3250780212	        1.1485050658	        0.0000000000	       -0.0452432868	        0.0000000000	        0.0000000000	        0.0000000000	        0.0000000000	        0.0000000000	        0.0000000000	
